<svg xmlns="http://www.w3.org/2000/svg" width="750" height="1050" viewBox="0 0 750 1050">

    <defs>
      <linearGradient id="g1" x1="0" x2="0" y1="0" y2="1">
        <stop offset="0%" stop-color="#0b0b10"/>
        <stop offset="60%" stop-color="#0a0a0f"/>
        <stop offset="100%" stop-color="#08080c"/>
      </linearGradient>
      <radialGradient id="sheen" cx="70%" cy="10%" r="70%">
        <stop offset="0%" stop-color="#ffffff10"/>
        <stop offset="60%" stop-color="#ffffff00"/>
        <stop offset="100%" stop-color="#ffffff00"/>
      </radialGradient>
    </defs>
    <path d="M40,0 H710 Q750,0 750,40 V1010 Q750,1050 710,1050 H40 Q0,1050 0,1010 V40 Q0,0 40,0 Z" fill="url(#g1)" stroke="#3a3d54" stroke-width="3"/>
    <path d="M40,0 H710 Q750,0 750,40 V1010 Q750,1050 710,1050 H40 Q0,1050 0,1010 V40 Q0,0 40,0 Z" fill="url(#sheen)"/>
    
<path d="M-1050,0 L0, 1050" stroke="#ffffff10" stroke-width="3"/>
<path d="M-1026,0 L24, 1050" stroke="#ffffff10" stroke-width="3"/>
<path d="M-1002,0 L48, 1050" stroke="#ffffff10" stroke-width="3"/>
<path d="M-978,0 L72, 1050" stroke="#ffffff10" stroke-width="3"/>
<path d="M-954,0 L96, 1050" stroke="#ffffff10" stroke-width="3"/>
<path d="M-930,0 L120, 1050" stroke="#ffffff10" stroke-width="3"/>
<path d="M-906,0 L144, 1050" stroke="#ffffff10" stroke-width="3"/>
<path d="M-882,0 L168, 1050" stroke="#ffffff10" stroke-width="3"/>
<path d="M-858,0 L192, 1050" stroke="#ffffff10" stroke-width="3"/>
<path d="M-834,0 L216, 1050" stroke="#ffffff10" stroke-width="3"/>
<path d="M-810,0 L240, 1050" stroke="#ffffff10" stroke-width="3"/>
<path d="M-786,0 L264, 1050" stroke="#ffffff10" stroke-width="3"/>
<path d="M-762,0 L288, 1050" stroke="#ffffff10" stroke-width="3"/>
<path d="M-738,0 L312, 1050" stroke="#ffffff10" stroke-width="3"/>
<path d="M-714,0 L336, 1050" stroke="#ffffff10" stroke-width="3"/>
<path d="M-690,0 L360, 1050" stroke="#ffffff10" stroke-width="3"/>
<path d="M-666,0 L384, 1050" stroke="#ffffff10" stroke-width="3"/>
<path d="M-642,0 L408, 1050" stroke="#ffffff10" stroke-width="3"/>
<path d="M-618,0 L432, 1050" stroke="#ffffff10" stroke-width="3"/>
<path d="M-594,0 L456, 1050" stroke="#ffffff10" stroke-width="3"/>
<path d="M-570,0 L480, 1050" stroke="#ffffff10" stroke-width="3"/>
<path d="M-546,0 L504, 1050" stroke="#ffffff10" stroke-width="3"/>
<path d="M-522,0 L528, 1050" stroke="#ffffff10" stroke-width="3"/>
<path d="M-498,0 L552, 1050" stroke="#ffffff10" stroke-width="3"/>
<path d="M-474,0 L576, 1050" stroke="#ffffff10" stroke-width="3"/>
<path d="M-450,0 L600, 1050" stroke="#ffffff10" stroke-width="3"/>
<path d="M-426,0 L624, 1050" stroke="#ffffff10" stroke-width="3"/>
<path d="M-402,0 L648, 1050" stroke="#ffffff10" stroke-width="3"/>
<path d="M-378,0 L672, 1050" stroke="#ffffff10" stroke-width="3"/>
<path d="M-354,0 L696, 1050" stroke="#ffffff10" stroke-width="3"/>
<path d="M-330,0 L720, 1050" stroke="#ffffff10" stroke-width="3"/>
<path d="M-306,0 L744, 1050" stroke="#ffffff10" stroke-width="3"/>
<path d="M-282,0 L768, 1050" stroke="#ffffff10" stroke-width="3"/>
<path d="M-258,0 L792, 1050" stroke="#ffffff10" stroke-width="3"/>
<path d="M-234,0 L816, 1050" stroke="#ffffff10" stroke-width="3"/>
<path d="M-210,0 L840, 1050" stroke="#ffffff10" stroke-width="3"/>
<path d="M-186,0 L864, 1050" stroke="#ffffff10" stroke-width="3"/>
<path d="M-162,0 L888, 1050" stroke="#ffffff10" stroke-width="3"/>
<path d="M-138,0 L912, 1050" stroke="#ffffff10" stroke-width="3"/>
<path d="M-114,0 L936, 1050" stroke="#ffffff10" stroke-width="3"/>
<path d="M-90,0 L960, 1050" stroke="#ffffff10" stroke-width="3"/>
<path d="M-66,0 L984, 1050" stroke="#ffffff10" stroke-width="3"/>
<path d="M-42,0 L1008, 1050" stroke="#ffffff10" stroke-width="3"/>
<path d="M-18,0 L1032, 1050" stroke="#ffffff10" stroke-width="3"/>
<path d="M6,0 L1056, 1050" stroke="#ffffff10" stroke-width="3"/>
<path d="M30,0 L1080, 1050" stroke="#ffffff10" stroke-width="3"/>
<path d="M54,0 L1104, 1050" stroke="#ffffff10" stroke-width="3"/>
<path d="M78,0 L1128, 1050" stroke="#ffffff10" stroke-width="3"/>
<path d="M102,0 L1152, 1050" stroke="#ffffff10" stroke-width="3"/>
<path d="M126,0 L1176, 1050" stroke="#ffffff10" stroke-width="3"/>
<path d="M150,0 L1200, 1050" stroke="#ffffff10" stroke-width="3"/>
<path d="M174,0 L1224, 1050" stroke="#ffffff10" stroke-width="3"/>
<path d="M198,0 L1248, 1050" stroke="#ffffff10" stroke-width="3"/>
<path d="M222,0 L1272, 1050" stroke="#ffffff10" stroke-width="3"/>
<path d="M246,0 L1296, 1050" stroke="#ffffff10" stroke-width="3"/>
<path d="M270,0 L1320, 1050" stroke="#ffffff10" stroke-width="3"/>
<path d="M294,0 L1344, 1050" stroke="#ffffff10" stroke-width="3"/>
<path d="M318,0 L1368, 1050" stroke="#ffffff10" stroke-width="3"/>
<path d="M342,0 L1392, 1050" stroke="#ffffff10" stroke-width="3"/>
<path d="M366,0 L1416, 1050" stroke="#ffffff10" stroke-width="3"/>
<path d="M390,0 L1440, 1050" stroke="#ffffff10" stroke-width="3"/>
<path d="M414,0 L1464, 1050" stroke="#ffffff10" stroke-width="3"/>
<path d="M438,0 L1488, 1050" stroke="#ffffff10" stroke-width="3"/>
<path d="M462,0 L1512, 1050" stroke="#ffffff10" stroke-width="3"/>
<path d="M486,0 L1536, 1050" stroke="#ffffff10" stroke-width="3"/>
<path d="M510,0 L1560, 1050" stroke="#ffffff10" stroke-width="3"/>
<path d="M534,0 L1584, 1050" stroke="#ffffff10" stroke-width="3"/>
<path d="M558,0 L1608, 1050" stroke="#ffffff10" stroke-width="3"/>
<path d="M582,0 L1632, 1050" stroke="#ffffff10" stroke-width="3"/>
<path d="M606,0 L1656, 1050" stroke="#ffffff10" stroke-width="3"/>
<path d="M630,0 L1680, 1050" stroke="#ffffff10" stroke-width="3"/>
<path d="M654,0 L1704, 1050" stroke="#ffffff10" stroke-width="3"/>
<path d="M678,0 L1728, 1050" stroke="#ffffff10" stroke-width="3"/>
<path d="M702,0 L1752, 1050" stroke="#ffffff10" stroke-width="3"/>
<path d="M726,0 L1776, 1050" stroke="#ffffff10" stroke-width="3"/>
<circle cx="375.0" cy="525.0" r="140" fill="#ffffff08" stroke="#ffffff12" stroke-width="3"/>
<text x="375.0" y="519.0" text-anchor="middle" dominant-baseline="middle" font-size="72" fill="#c7ccdc">BLACK</text>
<text x="375.0" y="585.0" text-anchor="middle" dominant-baseline="middle" font-size="64" fill="#ff4d6d">POKER</text>
<rect x="20" y="20" width="710" height="1010" rx="32" ry="32" fill="none" stroke="#ffffff14" stroke-width="2"/>
</svg>