<svg xmlns="http://www.w3.org/2000/svg" width="750" height="1050" viewBox="0 0 750 1050">

    <defs>
      <linearGradient id="g1" x1="0" x2="0" y1="0" y2="1">
        <stop offset="0%" stop-color="#0b0b10"/>
        <stop offset="60%" stop-color="#0a0a0f"/>
        <stop offset="100%" stop-color="#08080c"/>
      </linearGradient>
      <radialGradient id="sheen" cx="70%" cy="10%" r="70%">
        <stop offset="0%" stop-color="#ffffff10"/>
        <stop offset="60%" stop-color="#ffffff00"/>
        <stop offset="100%" stop-color="#ffffff00"/>
      </radialGradient>
    </defs>
    <path d="M40,0 H710 Q750,0 750,40 V1010 Q750,1050 710,1050 H40 Q0,1050 0,1010 V40 Q0,0 40,0 Z" fill="url(#g1)" stroke="#3a3d54" stroke-width="3"/>
    <path d="M40,0 H710 Q750,0 750,40 V1010 Q750,1050 710,1050 H40 Q0,1050 0,1010 V40 Q0,0 40,0 Z" fill="url(#sheen)"/>
    

    <g transform="translate(40, 60)">
      <text x="0" y="0" font-family="ui-monospace,Menlo,Consolas,monospace" font-size="80" fill="#ff4d6d" dominant-baseline="hanging">JK</text>
      <text x="8" y="86" font-size="64" fill="#ff4d6d" dominant-baseline="hanging">★</text>
    </g>
    
    <g transform="translate(710, 990) rotate(180)">
      <text x="0" y="0" font-family="ui-monospace,Menlo,Consolas,monospace" font-size="80" fill="#ff4d6d" dominant-baseline="hanging">JK</text>
      <text x="8" y="86" font-size="64" fill="#ff4d6d" dominant-baseline="hanging">★</text>
    </g>
    
<text x="375.0" y="385.0" text-anchor="middle" font-size="200" fill="#ffffff18">JOKER</text>
<text x="375.0" y="745.0" text-anchor="middle" font-size="220" fill="#ff4d6d">★</text>
<rect x="20" y="20" width="710" height="1010" rx="32" ry="32" fill="none" stroke="#ffffff14" stroke-width="2"/>
</svg>